<?xml version="1.0" standalone="no"?>
<!DOCTYPE svg PUBLIC "-//W3C//DTD SVG 20010904//EN"
 "http://www.w3.org/TR/2001/REC-SVG-20010904/DTD/svg10.dtd">
<svg version="1.0" xmlns="http://www.w3.org/2000/svg"
 width="512.000000pt" height="512.000000pt" viewBox="0 0 512.000000 512.000000"
 preserveAspectRatio="xMidYMid meet">
<metadata>
Created by potrace 1.14, written by Peter Selinger 2001-2017
</metadata>
<g transform="translate(0.000000,512.000000) scale(0.100000,-0.100000)"
fill="#000000" stroke="none">
<path d="M865 4783 c-110 -33 -203 -138 -218 -248 -4 -22 -7 -236 -7 -475 l-1
-435 -42 -33 c-127 -102 -258 -248 -351 -395 -35 -55 -126 -229 -131 -252 -1
-5 -7 -23 -14 -38 -27 -67 -66 -218 -77 -297 -3 -25 -10 -67 -14 -93 -10 -68
-5 -340 8 -412 6 -33 13 -72 16 -86 25 -149 121 -383 220 -537 93 -145 291
-358 371 -400 26 -13 90 -15 448 -15 l417 -1 1 -25 c2 -72 7 -130 14 -161 8
-41 60 -130 86 -148 10 -7 25 -19 33 -28 45 -44 193 -75 265 -54 28 8 31 6 32
-13 4 -111 61 -210 155 -270 50 -30 84 -40 160 -43 71 -2 151 25 206 71 36 30
91 106 103 145 5 14 11 138 14 275 l6 250 530 1 531 0 1 -237 c1 -192 4 -247
18 -288 71 -214 340 -289 509 -140 69 60 109 145 115 247 1 7 6 10 12 6 23
-14 132 -12 182 3 142 42 225 157 229 318 1 39 3 75 5 81 3 7 58 11 167 11
262 -1 256 -9 256 323 0 322 6 313 -235 316 -88 1 -167 3 -176 3 -13 1 -16 15
-17 79 -2 153 -66 258 -192 315 -60 27 -71 29 -150 24 l-86 -5 0 31 c-2 118
-97 241 -219 283 -67 22 -174 15 -235 -15 -100 -51 -165 -144 -178 -254 -4
-34 -7 -152 -6 -262 l1 -200 -273 0 c-150 1 -276 3 -279 6 -2 3 6 34 20 70 33
83 71 224 85 319 15 97 20 336 9 419 -5 36 -11 81 -14 100 -27 214 -172 541
-317 717 -70 84 -193 208 -250 252 l-48 36 -1 441 c0 242 -3 454 -5 470 -19
115 -119 224 -234 253 -32 8 -248 11 -725 11 -577 0 -688 -3 -730 -16z m1161
-705 c1 -103 -2 -188 -6 -188 -3 0 -29 6 -56 14 -200 57 -545 52 -775 -10 -15
-4 -16 15 -16 178 0 101 4 186 9 189 4 3 196 5 426 5 l418 1 0 -189z"/>
</g>
</svg>
